Coordinates
version=1
nRows=6
nColumns=63
inDegrees=yes

Units are S.I. units (second, meters, Newtons, ...)
If the header above contains a line with 'inDegrees', this indicates whether rotational values are in degrees (yes) or radians (no).

endheader
time	pelvis_tilt	pelvis_list	pelvis_rotation	pelvis_tx	pelvis_ty	pelvis_tz	hip_flexion_r	hip_adduction_r	hip_rotation_r	knee_angle_r	knee_angle_r_beta	ankle_angle_r	subtalar_angle_r	mtp_angle_r	hip_flexion_l	hip_adduction_l	hip_rotation_l	knee_angle_l	knee_angle_l_beta	ankle_angle_l	subtalar_angle_l	mtp_angle_l	L5_S1_Flex_Ext	L5_S1_Lat_Bending	L5_S1_axial_rotation	L4_L5_Flex_Ext	L4_L5_Lat_Bending	L4_L5_axial_rotation	L3_L4_Flex_Ext	L3_L4_Lat_Bending	L3_L4_axial_rotation	L2_L3_Flex_Ext	L2_L3_Lat_Bending	L2_L3_axial_rotation	L1_L2_Flex_Ext	L1_L2_Lat_Bending	L1_L2_axial_rotation	L1_T12_Flex_Ext	L1_T12_Lat_Bending	L1_T12_axial_rotation	Abs_r3	Abs_r2	Abs_r1	Abs_t1	Abs_t2	neck_flexion	neck_bending	neck_rotation	arm_flex_r	arm_add_r	arm_rot_r	elbow_flex_r	pro_sup_r	wrist_flex_r	wrist_dev_r	arm_flex_l	arm_add_l	arm_rot_l	elbow_flex_l	pro_sup_l	wrist_flex_l	wrist_dev_l
7.883333	4.573563	-3.690196	87.558904	0.137487	0.959031	0.319553	-0.485052	2.251044	-1.443226	13.084336	0.228365	39.381025	1.421226	0.000000	0.002512	0.358151	-6.987664	17.076071	0.298034	32.320901	-4.696201	0.000000	-0.659690	0.147534	0.493145	-1.225111	0.196220	0.523966	-1.083805	0.358714	0.523966	-0.753960	0.358714	0.431502	-0.612588	0.300851	0.400680	-0.376947	0.228530	0.369859	-4.712101	1.668934	2.742723	0.000000	0.000000	-10.002214	0.143465	0.427438	-1.106460	-15.153481	41.623806	29.068073	85.015700	-10.294152	-0.585445	9.813357	-11.539125	84.677294	19.672499	41.453464	-7.666859	-13.665829
7.900000	4.643636	-3.702228	87.581959	0.137349	0.958983	0.319500	-0.478108	2.326093	-1.412830	13.070084	0.228116	39.340384	1.336954	0.000000	0.022596	0.321749	-6.812415	17.121086	0.298819	32.213262	-5.159907	0.000000	-0.663930	0.154465	0.509837	-1.232985	0.205438	0.541702	-1.090771	0.375565	0.541702	-0.758806	0.375565	0.446107	-0.616526	0.314984	0.414243	-0.379370	0.239266	0.382378	-4.742387	1.747335	2.835561	0.000000	0.000000	-9.885603	0.267468	0.382823	-1.212595	-15.197801	41.301716	29.218832	85.423564	-10.433304	-0.623246	9.751074	-11.516123	83.737825	19.751241	42.596069	-7.720621	-13.372066
7.916667	4.723885	-3.716051	87.603844	0.137233	0.958958	0.319445	-0.464853	2.415126	-1.366275	13.067715	0.228075	39.284746	1.228203	0.000000	0.039001	0.276002	-6.603948	17.157146	0.299449	32.133645	-5.631586	0.000000	-0.667499	0.161889	0.526841	-1.239613	0.215312	0.559768	-1.096635	0.393617	0.559768	-0.762885	0.393617	0.460986	-0.619840	0.330124	0.428058	-0.381409	0.250766	0.395131	-4.767881	1.831322	2.930130	0.000000	0.000000	-9.752731	0.406627	0.338312	-1.332704	-15.231219	40.880530	29.388377	85.842168	-10.489586	-0.559035	9.697241	-11.486434	82.867591	19.812927	43.688745	-7.794152	-13.085186
7.933333	4.819139	-3.729249	87.639952	0.137117	0.958954	0.319363	-0.461633	2.518459	-1.361740	13.052619	0.227811	39.220892	1.163103	0.000000	0.054979	0.214669	-6.336404	17.190349	0.300028	32.102821	-6.088532	0.000000	-0.670310	0.170132	0.541592	-1.244833	0.226276	0.575441	-1.101253	0.413659	0.575441	-0.766098	0.413659	0.473893	-0.622450	0.346933	0.440043	-0.383015	0.263534	0.406194	-4.787960	1.924567	3.012171	0.000000	0.000000	-9.615993	0.564334	0.276185	-1.446911	-15.270452	40.487027	29.572943	86.127709	-10.473637	-0.389223	9.645691	-11.446572	82.069613	19.858284	44.684984	-7.884484	-12.802241
7.950000	4.909980	-3.739075	87.673119	0.137030	0.958980	0.319305	-0.436345	2.614875	-1.380001	13.083179	0.228345	39.165624	1.109156	0.000000	0.066797	0.161961	-6.015930	17.206218	0.300305	32.097908	-6.565537	0.000000	-0.674239	0.177550	0.553089	-1.252130	0.236141	0.587657	-1.107708	0.431695	0.587657	-0.770588	0.431695	0.483953	-0.626099	0.362060	0.449385	-0.385260	0.275025	0.414817	-4.816024	2.008479	3.076115	0.000000	0.000000	-9.457351	0.702441	0.261808	-1.545619	-15.298815	40.073547	29.763958	86.410537	-10.406799	-0.125946	9.598133	-11.399012	81.347184	19.863581	45.606927	-7.960626	-12.561030
7.966667	5.001918	-3.754343	87.712755	0.136952	0.959014	0.319228	-0.396006	2.718121	-1.382731	13.131596	0.229190	39.108527	1.011302	0.000000	0.085208	0.104763	-5.682780	17.210303	0.300376	32.144807	-6.978893	0.000000	-0.676870	0.184668	0.566548	-1.257016	0.245609	0.601958	-1.112030	0.449003	0.601958	-0.773595	0.449003	0.495730	-0.628542	0.376576	0.460321	-0.386764	0.286051	0.424911	-4.834816	2.089006	3.150973	0.000000	0.000000	-9.304744	0.835555	0.223361	-1.660324	-15.325263	39.637371	29.970215	86.578133	-10.273500	0.222585	9.565242	-11.339915	80.759207	19.839276	46.376570	-8.023665	-12.363768
